<svg width="100%" height="100%" viewBox="0 0 1920 263" xmlns="http://www.w3.org/2000/svg" preserveAspectRatio="none">
<g opacity="0.25">
<path d="M1920 262.5C1464.84 262.5 1229.12 144.73 837.35 66.6446C490.044 -2.57744 0 0.0125541 0 0.0125541V261.5L1920 262.5Z" fill="currentColor"/>
</g>
<g opacity="0.333333">
<path d="M1920 262.5C1464.84 262.5 1229.12 164.73 837.35 86.6446C490.044 17.4226 0 20.0126 0 20.0126V262.5H1920Z" fill="currentColor"/>
</g>
<g opacity="0.5">
<path d="M1920 262.5C1464.84 262.5 1229.12 184.73 837.35 106.645C490.044 37.4226 0 40.0126 0 40.0126V262.5H1920Z" fill="currentColor"/>
</g>
<path d="M1920 262.5C1464.84 262.5 1229.12 204.73 837.35 126.645C490.044 57.4226 0 60.0126 0 60.0126V262.5H1920Z" fill="currentColor"/>
</svg>
